<?xml version="1.0" encoding="UTF-8" standalone="no"?>
<!-- Created with Inkscape (http://www.inkscape.org/) -->

<svg
   version="1.1"
   id="svg2"
   width="378.89334"
   height="95.239998"
   viewBox="0 0 378.89334 95.239998"
   xmlns="http://www.w3.org/2000/svg"
   xmlns:svg="http://www.w3.org/2000/svg">
  <defs
     id="defs6">
    <clipPath
       clipPathUnits="userSpaceOnUse"
       id="clipPath16">
      <path
         d="M 0,0 H 284.17 V 71.43 H 0 Z"
         id="path14" />
    </clipPath>
    <clipPath
       clipPathUnits="userSpaceOnUse"
       id="clipPath48">
      <path
         d="M 0,71.43 H 284.17 V 0 H 0 Z"
         id="path46" />
    </clipPath>
  </defs>
  <g
     id="g8"
     transform="matrix(1.3333333,0,0,-1.3333333,0,95.24)">
    <g
       id="g10">
      <g
         id="g12"
         clip-path="url(#clipPath16)">
        <g
           id="g18"
           transform="translate(34.98,62.97)">
          <path
             d="m 0,0 c -0.208,-0.465 -0.549,-0.858 -0.98,-1.13 0.787,-0.181 1.593,-0.262 2.4,-0.24 0.679,0.024 1.21,0.594 1.185,1.273 C 2.598,0.118 2.534,0.327 2.42,0.51 c 0,0.06 0,0.24 0.22,0.11 C 3.376,0.183 3.619,-0.768 3.182,-1.504 2.994,-1.821 2.699,-2.061 2.35,-2.18 1.18,-2.6 -0.28,-1.97 -1.31,-1.8 c 0.141,-0.258 0.236,-0.539 0.28,-0.83 0.29,-0.08 1,-0.28 1,-0.55 -0.081,-0.874 -0.283,-1.732 -0.6,-2.55 -0.3,-0.67 -0.84,-1.45 -1.51,-1.54 0.14,2.33 -2.46,0.72 -3.92,1.2 -0.13,-1.65 2.46,-2.09 5.23,-3.28 1.522,-0.535 2.847,-1.518 3.8,-2.82 1.09,0.802 2.255,1.495 3.48,2.07 0.54,0.28 1,0.53 1.15,1 0.083,0.711 0.083,1.429 0,2.14 -0.43,3.23 2.7,5 4.81,3.37 -0.071,-0.123 -0.116,-0.259 -0.13,-0.4 0.668,-0.184 1.282,-0.528 1.79,-1 -0.137,-0.151 -0.242,-0.328 -0.31,-0.52 0.621,-0.277 1.127,-0.761 1.43,-1.37 -0.276,-0.275 -0.506,-0.592 -0.68,-0.94 -0.308,-0.916 -0.503,-1.866 -0.58,-2.83 -0.133,-0.86 -0.476,-1.675 -1,-2.37 -1.15,-1.36 -3.51,-2.11 -4.67,-3.54 -0.4,-0.49 -0.4,-1.53 0.29,-1.78 -0.62,-0.687 -1.546,-1.014 -2.46,-0.87 0.149,-0.446 0.535,-0.77 1,-0.84 -1,-2 -2.73,-1 -3.58,-1.52 -0.061,-0.198 -0.135,-0.391 -0.22,-0.58 1.274,-0.233 2.524,-0.588 3.73,-1.06 0.76,-0.31 1.92,-1 3,-0.59 0.685,0.371 1.317,0.832 1.88,1.37 0.894,0.837 2.115,1.233 3.33,1.08 1.851,-0.307 3.133,-2.017 2.91,-3.88 -0.143,0.022 -0.287,0.022 -0.43,0 0.101,-0.527 0.132,-1.065 0.09,-1.6 -0.172,0.03 -0.348,0.03 -0.52,0 0.02,-0.624 -0.107,-1.244 -0.37,-1.81 -0.511,0.193 -1.069,0.228 -1.6,0.1 -1.56,-0.5 -2.59,-2.19 -5.06,-2 -0.643,0.063 -1.281,0.167 -1.91,0.31 -0.56,0.192 -1.141,0.316 -1.73,0.37 -0.45,-0.06 -0.47,-0.35 -0.56,-0.83 -0.856,0.062 -1.598,0.617 -1.9,1.42 -0.49,-0.35 -0.44,-1 -0.45,-1.54 -0.888,0.017 -1.723,0.427 -2.28,1.12 -0.45,-0.826 -1.32,-1.334 -2.26,-1.32 0.093,0.568 -0.08,1.147 -0.47,1.57 -0.673,-0.807 -1.458,-1.514 -2.33,-2.1 2.082,-1.01 4.036,-2.266 5.82,-3.74 1.67,-1.43 3.64,-3.69 3.75,-6 0.11,-2.49 -1.67,-3.92 -3.1,-5 -1.43,-1.08 -2.6,-1.9 -4,-2.8 -0.087,-0.035 -0.13,-0.134 -0.095,-0.221 0.004,-0.01 0.009,-0.02 0.015,-0.029 0.311,-0.92 0.767,-1.784 1.35,-2.56 0.31,-0.39 0.92,-1.11 1.53,-1.13 0.94,0 2.27,0.83 3.35,1 2.35,0.3 4.05,-1.68 3.3,-4.24 -0.153,0.071 -0.322,0.102 -0.49,0.09 0.002,-0.692 -0.152,-1.376 -0.45,-2 -0.171,0.107 -0.361,0.179 -0.56,0.21 -0.124,-0.706 -0.434,-1.365 -0.9,-1.91 -0.314,0.24 -0.687,0.392 -1.08,0.44 -3.34,0.14 -4.88,-0.3 -6.08,0.47 -0.443,0.396 -0.83,0.85 -1.15,1.35 -0.36,0.47 -0.75,1.19 -1.12,1.29 -0.365,0.093 -0.752,-0.026 -1,-0.31 -0.346,0.449 -0.501,1.017 -0.43,1.58 -0.481,0.018 -0.943,-0.189 -1.25,-0.56 -0.404,0.643 -0.564,1.409 -0.45,2.16 -0.562,0.068 -1.119,-0.168 -1.46,-0.62 -0.478,0.769 -0.505,1.736 -0.07,2.53 -0.806,0.14 -1.479,0.695 -1.77,1.46 1.33,0.57 1.52,1.42 2,2.37 0.58,1.26 4.29,1.4 4.68,3.17 0.089,0.57 -0.002,1.154 -0.26,1.67 -1,1.85 -4.15,2.43 -6.85,2.42 -0.063,-1.348 -0.254,-2.688 -0.57,-4 -0.253,-1.044 -0.742,-2.016 -1.43,-2.84 -1.088,-0.99 -2.415,-1.679 -3.85,-2 -1.42,-0.42 -2.66,-0.7 -4.15,-1 -0.24,0 0.12,-2.56 0.89,-4.21 0.42,-0.89 0.57,-1.38 1.32,-1.26 1.093,0.351 2.219,0.592 3.36,0.72 1.891,-0.104 3.34,-1.722 3.236,-3.614 -0.031,-0.565 -0.202,-1.113 -0.496,-1.596 -0.123,0.079 -0.258,0.136 -0.4,0.17 -0.094,-0.549 -0.291,-1.075 -0.58,-1.55 -0.163,0.118 -0.346,0.206 -0.54,0.26 -0.197,-0.643 -0.588,-1.209 -1.12,-1.62 -0.329,0.363 -0.79,0.58 -1.28,0.6 -3.6,0.14 -5.16,-0.39 -6.62,0.94 -0.522,0.549 -0.927,1.199 -1.19,1.91 -0.61,1.42 -1.1,2.2 -2.15,1.16 -0.406,0.588 -0.481,1.343 -0.2,2 -0.511,0.092 -1.037,0.003 -1.49,-0.25 -0.372,0.733 -0.342,1.605 0.08,2.31 -1.064,0.135 -1.918,0.945 -2.11,2 0.644,0.014 1.258,0.271 1.72,0.72 -0.996,0.235 -1.751,1.049 -1.91,2.06 0.594,-0.024 1.183,0.129 1.69,0.44 0.88,0.68 0.6,2.06 2,2.51 1.62,0.54 4.8,-0.19 4.9,1.84 -0.157,1.19 -0.442,2.361 -0.85,3.49 -0.295,1.126 -0.443,2.286 -0.44,3.45 -7.55,-0.73 -9.95,4.27 -9.74,8.27 0.17,3.29 1.36,5.58 3.27,9.38 2.35,4.7 4.08,8.07 3.91,11.28 -0.07,1.47 -0.6,3.2 -1.7,3.5 -0.978,0.277 -1.995,-0.292 -2.272,-1.269 -0.172,-0.608 -0.02,-1.261 0.402,-1.731 0.459,-0.489 1.126,-0.724 1.79,-0.63 0.12,-0.882 -0.438,-1.715 -1.3,-1.94 0.34,-1.76 -0.46,-3.544 -2,-4.46 -0.026,0.214 -0.073,0.425 -0.14,0.63 -1,-0.8 -3.22,-1.64 -4.65,-0.67 0.335,0.354 0.652,0.724 0.95,1.11 0.627,0.808 1.005,1.781 1.09,2.8 0.07,1.11 0.12,2.2 0.14,3.1 0.07,2.86 2,5.82 5.45,5.56 2.94,-0.22 4.6,-2.62 4.75,-5.84 0.17,-3.71 -1.7,-8 -4.23,-13.9 -1,-2.36 -1.94,-4.81 -1.87,-6.71 -0.05,-2.159 1.659,-3.95 3.818,-4 0.008,0 0.015,0 0.022,0 1.347,-0.007 2.653,0.461 3.69,1.32 0.204,0.243 0.394,0.496 0.57,0.76 1.67,2.33 5.11,3.83 5.31,7.5 -1.123,-0.326 -2.321,0.174 -2.88,1.2 1,0.38 1.76,1.21 1.5,3.35 0,0.2 0,0.48 -0.05,0.73 -0.546,-0.118 -1.017,-0.459 -1.3,-0.94 -1.86,1.92 -0.9,4.38 -0.27,6.09 -1.27,-0.069 -2.413,0.768 -2.73,2 0.599,0.055 1.062,0.549 1.08,1.15 -0.109,0.654 -0.325,1.286 -0.64,1.87 -0.943,1.775 -1.447,3.75 -1.47,5.76 -0.947,0.527 -1.51,1.548 -1.45,2.63 0.88,0.06 1.51,0.48 1.53,1 0.02,0.622 0.114,1.24 0.28,1.84 -0.609,0.691 -0.746,1.679 -0.35,2.51 0.438,-0.113 0.901,-0.081 1.32,0.09 0.312,0.354 0.646,0.688 1,1 -0.084,0.597 0.059,1.203 0.4,1.7 0.338,-0.142 0.695,-0.233 1.06,-0.27 1.74,-0.18 5.87,1.05 8.92,-0.1 0.587,-0.22 1.122,-0.561 1.57,-1 0.713,-0.082 1.42,-0.202 2.12,-0.36 0.684,-0.186 1.352,-0.423 2,-0.71 0.23,0 0.85,-0.09 1.48,-0.14 1.046,-0.065 2.067,-0.344 3,-0.82 0.35,-0.38 0,-1 0,-1.78 C 0.79,2.27 1.15,1.17 0.69,0.36 0.522,0.109 0.25,-0.052 -0.05,-0.08 m -12,7.68 c -3.07,0.09 -4.14,-0.39 -6,-0.47 -0.261,0.006 -0.519,0.06 -0.76,0.16 -0.11,-0.324 -0.11,-0.676 0,-1 -1,-0.62 -1.16,-1.83 -2.52,-1.61 -0.059,-0.405 0.091,-0.812 0.4,-1.08 0.14,0.05 0.43,0.15 0.39,0 -0.323,-0.97 -0.518,-1.979 -0.58,-3 -0.08,-0.47 -0.75,-0.9 -1.36,-1 -0.051,-0.525 0.289,-1.009 0.8,-1.14 0.35,0.71 0.86,0.82 0.77,0.6 -0.168,-0.469 -0.263,-0.962 -0.28,-1.46 -0.013,-1.46 0.276,-2.907 0.85,-4.25 1,-2.23 2.15,-4 0.49,-5.06 0.489,-0.633 1.34,-0.862 2.08,-0.56 0.201,0.557 0.215,1.164 0.04,1.73 0,0.07 0.06,0.09 0.14,0 0.435,-0.502 0.593,-1.188 0.42,-1.83 -0.24,-1.68 -1.68,-3.75 -0.69,-5.7 0.342,0.268 0.743,0.45 1.17,0.53 -0.018,0.839 0.351,1.639 1,2.17 0.35,0.25 0.41,0.09 0.31,0 -0.73,-0.89 -0.68,-2.56 -0.48,-4.06 0.24,-1.88 -0.35,-3 -0.91,-3.27 0.786,-0.315 1.673,-0.256 2.41,0.16 0.567,0.304 1.043,0.752 1.38,1.3 -0.535,0.847 -0.725,1.867 -0.53,2.85 0.14,0.56 0.45,0.75 0.39,0.48 -0.42,-2.36 1.83,-3.45 1.78,-5.75 1.17,0.38 1.67,1.79 1.58,3.11 0,0.18 0.16,0.09 0.23,-0.09 0.66,-1.88 -0.54,-4.51 -2.77,-4.28 0.223,1.034 0.089,2.112 -0.38,3.06 -0.305,-0.577 -0.77,-1.053 -1.34,-1.37 -0.069,-0.516 -0.169,-1.027 -0.3,-1.53 -0.305,-1.371 -1,-2.624 -2,-3.61 -2.1,-2.15 -2.88,-2.33 -4.25,-4.32 -0.523,-0.418 -1.106,-0.756 -1.73,-1 -4.16,-1.64 -7.64,0.59 -7.37,5 0.291,2.031 0.895,4.004 1.79,5.85 2.18,5 4.23,9.15 4.49,13 0.22,3.13 -1.13,6.24 -4.38,6.27 -2.21,0.03 -4.32,-1.78 -4.37,-5.41 0,-2.14 0,-3.76 -0.9,-5.22 -0.17,-0.281 -0.357,-0.552 -0.56,-0.81 1.34,-0.13 2.655,0.422 3.5,1.47 0.12,-0.193 0.214,-0.402 0.28,-0.62 0.889,1.08 1.168,2.538 0.74,3.87 0.585,-0.147 1.185,0.179 1.38,0.75 -1.398,0.214 -2.358,1.52 -2.144,2.917 0.004,0.028 0.009,0.055 0.014,0.083 0.166,0.995 0.945,1.774 1.94,1.94 2.71,0.32 3.51,-2.43 3.47,-5 0,-3.31 -2,-7 -3.81,-10.66 -1.42,-3 -3,-6 -3.2,-8.84 -0.18,-3.14 1.26,-8.76 9.08,-7.54 0.31,0.91 0.7,1.27 0.93,1.16 0.08,0 0,-0.18 0,-0.48 -0.142,-0.859 -0.189,-1.731 -0.14,-2.6 0.09,-2 1,-4.07 1.08,-5.54 0.16,-2.33 -1,-2.6 -2.94,-2.81 -0.922,-0.005 -1.838,-0.143 -2.72,-0.41 -0.42,-0.2 -0.7,-1.25 -1.11,-1.78 -0.414,-0.498 -0.999,-0.822 -1.64,-0.91 0.344,-0.597 0.992,-0.952 1.68,-0.92 0.371,0.341 0.62,0.794 0.71,1.29 0,0.12 0.18,0.21 0.16,-0.25 -0.125,-1.348 -1.108,-2.46 -2.43,-2.75 0.349,-0.654 1.05,-1.042 1.79,-0.99 0.594,0.328 1.022,0.89 1.18,1.55 0.05,0.21 0.18,0.12 0.18,-0.16 -0.038,-0.691 -0.36,-1.335 -0.89,-1.78 -0.531,-0.426 -0.781,-1.112 -0.65,-1.78 0.458,0.168 0.955,0.2 1.43,0.09 0.342,0.307 0.574,0.718 0.66,1.17 0,0.18 0.22,0.14 0.18,-0.28 -0.08,-1 -0.91,-1.48 -0.7,-2.44 2,1 2.21,-2.58 3.76,-3.65 1.28,-0.88 3.66,-0.35 5.83,-0.51 0.086,0.955 0.712,1.775 1.61,2.11 -0.316,0.908 -1.308,1.387 -2.215,1.071 -0.159,-0.055 -0.309,-0.133 -0.445,-0.231 -0.16,-0.1 -0.11,0.1 0.07,0.25 0.856,0.627 2.049,0.497 2.75,-0.3 0.143,0.266 0.389,0.461 0.68,0.54 -0.519,1.092 -1.826,1.557 -2.918,1.037 -0.091,-0.043 -0.178,-0.092 -0.262,-0.147 -0.19,-0.13 -0.14,0.16 0.2,0.36 1.124,0.656 2.565,0.296 3.25,-0.81 0.12,0.2 0.39,0.46 0.59,0.44 -0.443,0.931 -1.412,1.495 -2.44,1.42 -2,0 -3.74,-1.39 -4.48,-0.34 -1.21,1.731 -1.903,3.77 -2,5.88 0,0.22 0,0.42 0.2,0.49 1.57,0.36 3.06,0.65 4.38,1.08 1.468,0.341 2.809,1.09 3.87,2.16 1.09,1.28 1.39,4.16 1.57,6.49 0.09,1.12 0.2,2.77 0.28,4 0.14,2 0.55,3.21 1.32,3.57 0.19,0.09 0.29,0 0.14,-0.27 -0.229,-0.464 -0.374,-0.965 -0.43,-1.48 0.345,0.27 0.709,0.514 1.09,0.73 1,0.55 1.68,0.84 2.79,1.42 0.997,0.542 1.944,1.171 2.83,1.88 0.596,0.41 1.131,0.901 1.59,1.46 -0.117,0.156 -0.218,0.323 -0.3,0.5 -0.603,-0.782 -1.532,-1.243 -2.52,-1.25 0.221,0.816 -0.03,1.686 -0.65,2.26 -0.541,0.406 -1.053,0.85 -1.53,1.33 -1.42,1.56 -0.21,4.86 -1.67,6.85 -0.1,0.2 0.12,0.15 0.36,-0.08 0.755,-0.932 1.174,-2.091 1.19,-3.29 0.035,-0.945 0.249,-1.875 0.63,-2.74 0.79,-1.24 2.59,-1.51 2.51,-3.38 0.57,0.15 1.28,0.7 1.31,1.19 -0.018,0.376 -0.174,0.733 -0.44,1 -0.08,0.06 0,0.17 0.2,0.1 0.42,-0.13 0.63,-0.65 0.81,-1 0.177,-0.407 0.409,-0.787 0.69,-1.13 0.52,-0.6 1.16,-0.91 1.24,-1.88 0.576,0.168 1.021,0.628 1.17,1.21 -0.26,0.73 -0.09,1.41 -0.85,1.91 -0.1,0.07 -0.05,0.24 0.36,0.06 1,-0.4 0.82,-1.55 1.28,-2.19 0.304,-0.467 0.777,-0.797 1.32,-0.92 0.036,0.621 0.343,1.195 0.84,1.57 -0.013,0.331 -0.189,0.635 -0.47,0.81 -0.1,0.08 -0.08,0.24 0.34,0 0.87,-0.44 0.62,-1.69 1.78,-2.18 0.33,1 1.59,0.67 2.78,0.37 0.653,-0.189 1.323,-0.313 2,-0.37 2.37,-0.12 2.76,1.48 4.84,2 -0.242,0.868 0.043,1.797 0.73,2.38 -0.697,0.724 -1.849,0.747 -2.573,0.05 -0.08,-0.077 -0.153,-0.16 -0.217,-0.25 -0.11,-0.14 -0.1,0.11 0.07,0.35 0.595,0.864 1.756,1.121 2.66,0.59 0,0.32 0.11,0.85 0.3,0.87 -0.905,0.835 -2.316,0.778 -3.151,-0.127 -0.013,-0.014 -0.026,-0.028 -0.039,-0.043 -0.11,-0.12 -0.08,0.11 0,0.31 0.777,0.948 2.16,1.124 3.15,0.4 0,0.21 0.1,0.66 0.35,0.67 -0.55,0.553 -1.326,0.819 -2.1,0.72 -2.39,-0.24 -3,-2.88 -5.62,-2.66 -0.796,0.208 -1.572,0.486 -2.32,0.83 -0.6,0.21 -1.35,0.41 -2,0.57 -1.8,0.44 -3.46,0.46 -4.46,1.66 -0.382,0.483 -0.628,1.06 -0.71,1.67 -0.06,0.34 0.08,0.5 0.17,0.27 0.56,-1.11 1.15,-2.14 2.56,-2.41 0.69,1.433 1.026,3.01 0.98,4.6 -0.61,0.27 -0.61,0.55 -0.8,0.63 0.09,-1.018 -0.175,-2.035 -0.75,-2.88 -0.21,1.097 -1.03,1.976 -2.11,2.26 -0.13,0 -0.14,0.24 0.39,0.2 0.599,-0.046 1.161,-0.309 1.58,-0.74 0.29,1.135 0.181,2.336 -0.31,3.4 -0.295,0.699 -0.763,1.312 -1.36,1.78 -0.13,0.09 -0.08,0.24 0.35,0 1.199,-0.636 1.994,-1.838 2.11,-3.19 0.58,-0.34 0.82,-1.09 1.63,-0.87 -0.69,0.78 -0.35,2.08 -1.44,4 -0.636,1.023 -1.577,1.82 -2.69,2.28 -1.6,0.83 -3.6,1.39 -4.8,1.89 -1.34,0.37 -2.25,1.611 -2.2,3 -0.398,0.174 -0.743,0.45 -1,0.8 -0.248,-0.274 -0.387,-0.63 -0.39,-1 -0.767,0.392 -1.286,1.144 -1.38,2 -0.27,0 -0.8,-1.57 -2.77,-0.84 1.17,1.22 -0.43,2.18 0.83,3.63 0.24,0.29 0.59,0.37 0.43,0.15 -1.15,-1.64 0.24,-2.21 -0.3,-3.28 1.24,-0.12 1.32,1.53 2.41,1.5 -0.176,-0.702 -0.005,-1.445 0.46,-2 0.233,0.453 0.63,0.8 1.11,0.97 0.17,-0.806 0.817,-1.425 1.63,-1.56 1.17,-0.26 2.49,0.44 3.45,0.3 0.561,-0.06 1.052,-0.403 1.3,-0.91 0.496,0.681 0.753,1.508 0.73,2.35 -1.87,1.17 -4.9,-1.33 -5.78,0.78 -0.167,0.401 -0.226,0.839 -0.17,1.27 0.26,1.71 1.39,2.53 3.42,2.38 0.89,-0.07 2.84,-0.49 3.36,-0.1 0.52,0.39 0.31,1.53 0.05,2.05 -0.53,0.14 -1.13,0.49 -1.1,0.88 0.03,0.39 0.35,-0.38 1.05,-0.16 0.2,0.09 0.3,0.8 0.17,0.84 -1.279,0.466 -2.643,0.65 -4,0.54 -0.2,-0.61 -0.68,-0.67 -0.72,-1.14 0,-0.635 -0.235,-1.248 -0.66,-1.72 -0.13,-0.09 -0.12,0 0,0.3 0.141,0.371 0.162,0.777 0.06,1.16 -0.31,0.68 -1.65,0.59 -1.68,1.34 0,0.31 0.16,0.27 1.48,0 0.56,-0.13 0.61,-0.14 0.69,0 0.22,0.49 -0.54,0.76 -1.21,0.92 -1.515,0.435 -3.115,0.476 -4.65,0.12 0.8,-0.38 1,-1.14 0.75,-1.5 -0.25,-0.36 0,0.37 -0.94,0.91 -0.94,0.54 -2.7,0.68 -3,0.21 -0.197,-0.432 -0.276,-0.908 -0.23,-1.38 0.063,-0.682 0.43,-1.3 1,-1.68 0.94,-0.63 1.57,-0.28 1.49,-0.48 -0.2,-0.43 -1.42,-0.37 -2.14,0.2 -0.64,0.482 -1.055,1.204 -1.15,2 -0.109,0.655 -0.008,1.327 0.29,1.92 0.745,0.478 1.664,0.603 2.51,0.34 0.903,0.276 1.846,0.397 2.79,0.36 -0.84,0.529 -1.817,0.8 -2.81,0.78 m 5.92,-9.38 c 1,0.8 2.36,1.1 4.41,0.75 -0.043,0.39 -0.173,0.766 -0.38,1.1 -2.05,0.34 -4,0.37 -4,-1.86 m 4.57,1.94 c 0.09,-0.212 0.157,-0.434 0.2,-0.66 0,-0.11 0,-0.21 0.07,-0.18 0.294,0.213 0.506,0.52 0.6,0.87 -0.289,-0.027 -0.581,-0.027 -0.87,0 m -4.34,-2.64 c 0.25,-0.82 1.72,0 2.86,0 0.31,0.24 0.577,0.531 0.79,0.86 -1.4,0.28 -2.95,0.1 -3.66,-0.9 m 4.01,0.72 c 0,0 -0.07,-0.07 -0.13,-0.17 -0.122,-0.193 -0.27,-0.368 -0.44,-0.52 0.258,0.007 0.516,-0.013 0.77,-0.06 0.005,0.261 -0.064,0.517 -0.2,0.74 m 13.33,-1.79 c -0.508,0.233 -1.092,0.233 -1.6,0 -0.16,-0.14 0,-0.34 0.51,-0.44 0.333,0.153 0.694,0.238 1.06,0.25 -0.009,0.063 -0.009,0.127 0,0.19 M 9.29,-7.05 c -0.252,0.603 -0.226,1.287 0.07,1.87 0.167,0.315 0.398,0.591 0.68,0.81 -0.262,0.025 -0.485,0.201 -0.57,0.45 -2.06,-1.1 -1,-3.24 -1.2,-5.14 -0.13,-1.18 -1.63,-1.6 -2.62,-2.22 -0.818,-0.48 -1.579,-1.05 -2.27,-1.7 1.06,-2.52 0.33,-3.07 1.52,-4.28 -0.222,-0.244 -0.531,-0.391 -0.86,-0.41 0.006,-1.013 -0.125,-2.022 -0.39,-3 0.87,0.35 1.51,-0.23 2.24,0.47 -0.564,0.499 -0.77,1.29 -0.52,2 0.1,0.3 0.23,0.26 0.23,0.18 -10e-4,-0.132 0.019,-0.264 0.06,-0.39 0.59,-0.147 1.214,-0.069 1.75,0.22 -0.92,1.58 0.85,3 2.19,3.85 1.086,0.562 2.076,1.295 2.93,2.17 0.89,1.21 0.45,2.52 1,4.31 -0.68,0.34 -1.57,1 -1.47,2 -0.71,-0.09 -1.54,-1 -1.09,-2.46 0.08,-0.26 -0.08,-0.18 -0.23,0.06 -0.511,0.926 -0.254,2.086 0.6,2.71 -0.37,0.24 -0.68,0.7 -0.64,1 -1.08,-0.39 -1.42,-1.33 -1.19,-2.57 0,-0.18 -0.12,-0.19 -0.25,0.17 m 3.94,1.81 c -0.556,0.51 -1.317,0.732 -2.06,0.6 -0.06,-0.29 0.34,-0.67 0.63,-0.84 0.434,0.153 0.903,0.177 1.35,0.07 l 0.08,0.18 m 1.05,-1.66 c -0.386,0.535 -1.011,0.846 -1.67,0.83 -0.15,-0.61 0.64,-1.32 1.18,-1.52 0.097,0.271 0.266,0.51 0.49,0.69 m 2.39,-16.87 c 0.309,-0.324 0.553,-0.704 0.72,-1.12 h 0.18 c -0.004,0.66 -0.253,1.294 -0.7,1.78 -0.18,0 -0.25,-0.45 -0.2,-0.69 m 0.63,-2.53 c -0.007,0.767 -0.291,1.506 -0.8,2.08 -0.2,0 -0.25,-0.52 -0.22,-0.84 0.378,-0.346 0.655,-0.789 0.8,-1.28 h 0.22 m -1.12,0.48 c -0.6,-0.4 -0.6,-1.35 -0.49,-2 0.279,0.072 0.571,0.072 0.85,0 0.178,0.687 0.046,1.418 -0.36,2 M 5.77,-52.69 c -1.93,0.2 -3.78,-1.53 -5,-0.77 -0.718,0.528 -1.337,1.178 -1.83,1.92 -0.34,0.5 -1.3,1.93 -1.21,2.5 0,0.24 0.42,0.42 1.09,0.84 1.11,0.704 2.178,1.472 3.2,2.3 1.19,1 3,2.41 3,4.29 -0.126,1.317 -0.653,2.563 -1.51,3.57 -1.444,1.658 -3.179,3.037 -5.12,4.07 -1.091,0.632 -2.216,1.203 -3.37,1.71 -1,-0.55 -1.45,-0.69 -2.27,-1.14 0.6,-0.24 1.1,-0.63 1,-1 -0.1,-0.37 -0.21,-0.25 -0.94,-0.73 -0.413,-0.278 -0.807,-0.582 -1.18,-0.91 -0.46,-0.471 -0.887,-0.972 -1.28,-1.5 -0.209,-0.249 -0.451,-0.468 -0.72,-0.65 v -0.86 c 3.14,-0.09 6,-1 7.36,-2.76 0.248,-0.306 0.457,-0.642 0.62,-1 0.464,-1.347 -0.083,-2.835 -1.31,-3.56 -0.87,-0.58 -2.87,-0.93 -3.43,-1.46 -0.56,-0.53 -0.47,-1.15 -1,-1.78 -0.231,-0.269 -0.513,-0.49 -0.83,-0.65 0.323,-0.397 0.82,-0.61 1.33,-0.57 0.215,0.174 0.407,0.376 0.57,0.6 0.189,0.298 0.284,0.647 0.27,1 0,0.1 0.14,0.21 0.2,-0.12 0.31,-1.63 -1.58,-1.82 -1.24,-3.65 0.427,0.326 0.972,0.456 1.5,0.36 0.161,0.273 0.341,0.533 0.54,0.78 0.164,0.266 0.238,0.578 0.21,0.89 0,0.12 0.16,0.16 0.22,-0.25 0.19,-1.18 -1.06,-1.48 -0.54,-3.34 0.373,0.281 0.833,0.423 1.3,0.4 0.251,0.317 0.375,0.716 0.35,1.12 0,0.13 0.12,0.26 0.23,-0.17 0.21,-0.87 -0.53,-1.2 -0.15,-2.35 1.31,0.53 1.65,-0.42 2.23,-1.17 0.329,-0.492 0.704,-0.95 1.12,-1.37 0.88,-0.68 3.35,-0.09 5.22,-0.29 0.06,0.957 0.68,1.789 1.58,2.12 -0.306,0.917 -1.297,1.412 -2.214,1.106 -0.241,-0.08 -0.461,-0.212 -0.646,-0.386 -0.12,-0.13 0,0.21 0.2,0.42 0.928,0.65 2.204,0.452 2.89,-0.45 0.14,0.34 0.41,0.65 0.61,0.66 -0.561,1.078 -1.89,1.497 -2.967,0.936 -0.099,-0.052 -0.193,-0.11 -0.283,-0.176 -0.07,-0.06 -0.1,0.11 0.16,0.34 1.019,0.681 2.383,0.516 3.21,-0.39 0.06,0.36 0.25,0.62 0.43,0.62 -0.371,0.528 -0.935,0.887 -1.57,1 m -13.86,18.76 c -0.838,-0.284 -1.596,-0.764 -2.21,-1.4 -0.079,-0.623 -0.116,-1.252 -0.11,-1.88 0.63,0.37 0.81,1 1.52,1.58 1.28,1 1.9,1.15 1.83,1.3 -0.07,0.15 -0.74,0.4 -1,0.4 M 7.86,-55.4 c 0.086,0.504 0.008,1.022 -0.22,1.48 -0.16,0.1 -0.34,-0.2 -0.42,-0.55 0.201,-0.282 0.35,-0.596 0.44,-0.93 h 0.2 m -1.41,-0.59 c 0.19,-0.405 0.298,-0.843 0.32,-1.29 0.096,0.01 0.194,0.01 0.29,0 0.241,0.651 0.212,1.371 -0.08,2 -0.15,0 -0.41,-0.34 -0.52,-0.66 m -1.59,-2.48 c 0.3,-0.048 0.589,-0.153 0.85,-0.31 0.337,0.609 0.457,1.314 0.34,2 -0.69,-0.07 -1.2,-1.2 -1.19,-1.69 m -17.31,-1.08 c 0.253,0.649 0.224,1.374 -0.08,2 -0.07,0.09 -0.44,-0.12 -0.51,-0.39 0.247,-0.473 0.38,-0.997 0.39,-1.53 0.069,0.014 0.141,0.014 0.21,0 m -1.55,0.48 c 0.242,-0.539 0.342,-1.131 0.29,-1.72 0.1,-0.014 0.197,-0.04 0.29,-0.08 0.305,0.754 0.305,1.596 0,2.35 -0.267,-0.064 -0.476,-0.273 -0.54,-0.54 m -1.56,-2.61 c 0.266,-0.069 0.501,-0.224 0.67,-0.44 0.485,0.597 0.695,1.37 0.58,2.13 -0.61,0 -1.17,-0.95 -1.24,-1.69"
             style="fill:#009ee0;fill-opacity:1;fill-rule:nonzero;stroke:none"
             id="path20" />
        </g>
        <g
           id="g22"
           transform="translate(24.54,66.62)">
          <path
             d="m 0,0 c -0.09,-0.43 -0.46,-0.54 -0.46,-0.22 0,0.92 -1,1.38 -2,1.47 -0.27,0 0,0.22 0.28,0.25 1,0.09 2.37,-0.52 2.16,-1.5"
             style="fill:#009ee0;fill-opacity:1;fill-rule:nonzero;stroke:none"
             id="path24" />
        </g>
        <g
           id="g26"
           transform="translate(16.28,58.43)">
          <path
             d="m 0,0 c -0.34,-1.95 0.71,-2.07 0.77,-3.51 0.774,-0.064 1.514,0.326 1.9,1 0.07,0.11 0.14,0 0.08,-0.25 -0.344,-1.193 -1.583,-1.888 -2.78,-1.56 0.56,1.31 -1.06,2.58 -0.2,4.18 0.17,0.31 0.25,0.25 0.23,0.09"
             style="fill:#009ee0;fill-opacity:1;fill-rule:nonzero;stroke:none"
             id="path28" />
        </g>
        <g
           id="g30"
           transform="translate(19.76,53.18)">
          <path
             d="m 0,0 c 0.11,0.14 0.21,0.1 0.17,0 -1,-3.23 1.41,-3.46 1.6,-6.25 0.898,0.311 1.566,1.07 1.76,2 0.08,0.26 0.21,0.11 0.19,-0.23 C 3.703,-5.065 3.538,-5.636 3.24,-6.14 2.702,-6.993 1.721,-7.46 0.72,-7.34 c 0.75,2.43 -1.3,3.34 -1.3,5.52 0.007,0.649 0.206,1.282 0.57,1.82"
             style="fill:#009ee0;fill-opacity:1;fill-rule:nonzero;stroke:none"
             id="path32" />
        </g>
        <g
           id="g34"
           transform="translate(32.41,47.35)">
          <path
             d="m 0,0 c -0.08,0.11 -0.08,0.32 0.34,-0.07 1.93,-1.77 0,-4.86 1.33,-6.38 -1.422,-0.593 -3.056,0.079 -3.649,1.502 -0.011,0.026 -0.021,0.052 -0.031,0.078 -0.09,0.52 0.28,-0.17 0.77,-0.5 0.482,-0.32 1.052,-0.481 1.63,-0.46 -0.5,1.9 1,3.51 -0.39,5.82"
             style="fill:#009ee0;fill-opacity:1;fill-rule:nonzero;stroke:none"
             id="path36" />
        </g>
      </g>
    </g>
    <g
       id="g38"
       transform="translate(65.55,42.86)">
      <path
         d="M 0,0 H 4.4 V -4.92 L 8.32,0 h 5.42 l -5.18,-5.58 6,-8.7 H 9.14 L 5.62,-8.72 4.4,-10.06 v -4.22 H 0 Z"
         style="fill:#009ee0;fill-opacity:1;fill-rule:nonzero;stroke:none"
         id="path40" />
    </g>
    <g
       id="g42">
      <g
         id="g44"
         clip-path="url(#clipPath48)">
        <g
           id="g50"
           transform="translate(86.73,33.24)">
          <path
             d="m 0,0 c -0.498,-0.229 -1.022,-0.397 -1.56,-0.5 -0.88,-0.2 -1.34,-0.42 -1.34,-1.12 0.073,-0.615 0.624,-1.059 1.24,-1 0.866,-0.05 1.608,0.611 1.658,1.476 C 0.001,-1.096 0.002,-1.048 0,-1 Z M 3.8,-2.34 C 3.73,-3.142 3.894,-3.948 4.27,-4.66 h -4 c -0.108,0.322 -0.155,0.661 -0.14,1 -0.875,-0.887 -2.098,-1.341 -3.34,-1.24 -2,0 -3.66,1 -3.66,3.14 0,3.28 3.84,3.16 5.86,3.54 0.54,0.1 1.08,0.26 1.08,0.92 0,0.66 -0.66,1 -1.3,1 -1.22,0 -1.46,-0.62 -1.48,-1.06 h -3.75 c -0.02,1.211 0.69,2.316 1.8,2.8 1.124,0.449 2.331,0.654 3.54,0.6 5,0 4.92,-2.06 4.92,-4.06 z"
             style="fill:#009ee0;fill-opacity:1;fill-rule:nonzero;stroke:none"
             id="path52" />
        </g>
        <g
           id="g54"
           transform="translate(92.09,38.96)">
          <path
             d="m 0,0 h 3.82 v -1.32 c 0.774,1.08 2.055,1.679 3.38,1.58 1.84,0.124 3.433,-1.267 3.558,-3.107 0.009,-0.138 0.01,-0.275 0.002,-0.413 v -7.12 h -4 v 5.44 c 0,1.2 -0.14,2 -1.3,2 -0.68,0 -1.58,-0.34 -1.58,-2 v -5.48 h -4 z"
             style="fill:#009ee0;fill-opacity:1;fill-rule:nonzero;stroke:none"
             id="path56" />
        </g>
        <g
           id="g58"
           transform="translate(109.19,38.96)">
          <path
             d="M 0,0 H 2.12 V -2.44 H 0 v -3.62 c 0,-1 0.22,-1.38 1.22,-1.38 0.301,0 0.602,0.02 0.9,0.06 v -3 c -0.8,0 -1.7,-0.12 -2.54,-0.12 -1.68,0 -3.54,0.26 -3.54,3.1 v 5 H -5.72 V 0 h 1.76 v 3.16 h 4 z"
             style="fill:#009ee0;fill-opacity:1;fill-rule:nonzero;stroke:none"
             id="path60" />
        </g>
        <g
           id="g62"
           transform="translate(117.31,36.32)">
          <path
             d="m 0,0 c -1.5,0 -1.7,-1.46 -1.7,-2.56 0,-1.1 0.2,-2.58 1.7,-2.58 1.5,0 1.7,1.48 1.7,2.58 0,1.1 -0.2,2.58 -1.7,2.58 z m 0,-8 c -3.9,0 -5.66,2.58 -5.66,5.46 C -5.66,0.34 -3.9,2.9 0,2.9 3.9,2.9 5.69,0.34 5.69,-2.54 5.69,-5.42 3.9,-8 0,-8"
             style="fill:#009ee0;fill-opacity:1;fill-rule:nonzero;stroke:none"
             id="path64" />
        </g>
        <g
           id="g66"
           transform="translate(124.09,38.96)">
          <path
             d="m 0,0 h 3.82 v -1.32 c 0.774,1.08 2.055,1.679 3.38,1.58 1.84,0.124 3.433,-1.267 3.558,-3.107 0.009,-0.138 0.01,-0.275 0.002,-0.413 v -7.12 h -4 v 5.44 c 0,1.2 -0.14,2 -1.3,2 -0.68,0 -1.58,-0.34 -1.58,-2 v -5.48 h -4 z"
             style="fill:#009ee0;fill-opacity:1;fill-rule:nonzero;stroke:none"
             id="path68" />
        </g>
        <g
           id="g70"
           transform="translate(142.51,35.94)">
          <path
             d="m 0,0 c -0.02,0.319 -0.191,0.608 -0.46,0.78 -0.25,0.199 -0.561,0.305 -0.88,0.3 -0.56,0 -1.2,-0.12 -1.2,-0.8 0,-0.3 0.24,-0.44 0.46,-0.54 0.66,-0.28 2.16,-0.36 3.48,-0.8 1.32,-0.44 2.48,-1.2 2.48,-2.9 0,-2.88 -2.76,-3.66 -5.28,-3.66 -2.52,0 -5.12,1 -5.18,3.66 h 3.78 c 0.022,-0.361 0.196,-0.696 0.48,-0.92 0.308,-0.219 0.683,-0.325 1.06,-0.3 0.52,0 1.34,0.2 1.34,0.8 0,0.6 -0.34,0.78 -2.18,1.1 -3,0.52 -4.24,1.48 -4.24,3.26 0,2.62 2.82,3.3 4.9,3.3 2.24,0 4.94,-0.62 5,-3.28 z"
             style="fill:#009ee0;fill-opacity:1;fill-rule:nonzero;stroke:none"
             id="path72" />
        </g>
        <g
           id="g74"
           transform="translate(153.47,35.94)">
          <path
             d="m 0,0 c -0.02,0.319 -0.191,0.608 -0.46,0.78 -0.25,0.199 -0.561,0.305 -0.88,0.3 -0.56,0 -1.2,-0.12 -1.2,-0.8 0,-0.3 0.24,-0.44 0.46,-0.54 0.66,-0.28 2.16,-0.36 3.48,-0.8 1.32,-0.44 2.48,-1.2 2.48,-2.9 0,-2.88 -2.76,-3.66 -5.28,-3.66 -2.52,0 -5.12,1 -5.18,3.66 h 3.78 c 0.022,-0.361 0.196,-0.696 0.48,-0.92 0.308,-0.219 0.683,-0.325 1.06,-0.3 0.52,0 1.34,0.2 1.34,0.8 0,0.6 -0.34,0.78 -2.18,1.1 -3,0.52 -4.24,1.48 -4.24,3.26 0,2.62 2.82,3.3 4.9,3.3 2.24,0 4.94,-0.62 5,-3.28 z"
             style="fill:#009ee0;fill-opacity:1;fill-rule:nonzero;stroke:none"
             id="path76" />
        </g>
        <g
           id="g78"
           transform="translate(165,35.02)">
          <path
             d="m 0,0 c -0.006,0.379 -0.165,0.739 -0.44,1 -0.278,0.236 -0.636,0.357 -1,0.34 -1.52,0 -1.74,-1.32 -1.74,-2.58 0,-1.26 0.22,-2.56 1.74,-2.56 0.832,0.025 1.504,0.688 1.54,1.52 h 3.78 c -0.141,-1.283 -0.789,-2.457 -1.8,-3.26 -1.039,-0.772 -2.306,-1.174 -3.6,-1.14 -3.01,-0.002 -5.451,2.437 -5.453,5.447 -0.002,3.01 2.437,5.451 5.447,5.453 h 0.006 c 2.72,0 5,-1.34 5.28,-4.2 z"
             style="fill:#009ee0;fill-opacity:1;fill-rule:nonzero;stroke:none"
             id="path80" />
        </g>
        <g
           id="g82"
           transform="translate(169.94,42.86)">
          <path
             d="m 0,0 h 4 v -5 c 0.791,0.96 2,1.475 3.24,1.38 1.84,0.124 3.433,-1.267 3.558,-3.107 0.009,-0.138 0.01,-0.275 0.002,-0.413 v -7.12 h -4 v 5.42 c 0,1.2 -0.14,2 -1.3,2 -0.68,0 -1.58,-0.34 -1.58,-2 v -5.48 h -4 z"
             style="fill:#009ee0;fill-opacity:1;fill-rule:nonzero;stroke:none"
             id="path84" />
        </g>
        <g
           id="g86"
           transform="translate(193.09,28.58)">
          <path
             d="m 0,0 h -3.82 v 1.32 c -0.774,-1.08 -2.055,-1.679 -3.38,-1.58 -1.84,-0.124 -3.433,1.267 -3.558,3.107 -0.009,0.138 -0.01,0.275 -0.002,0.413 v 7.12 h 4 V 4.94 c 0,-1.2 0.14,-2 1.3,-2 0.68,0 1.58,0.34 1.58,2 v 5.44 h 4 z"
             style="fill:#009ee0;fill-opacity:1;fill-rule:nonzero;stroke:none"
             id="path88" />
        </g>
        <path
           d="m 194.74,42.86 h 4 V 28.58 h -4 z"
           style="fill:#009ee0;fill-opacity:1;fill-rule:nonzero;stroke:none"
           id="path90" />
        <g
           id="g92"
           transform="translate(207.43,34.94)">
          <path
             d="m 0,0 c 0.022,0.939 -0.72,1.718 -1.659,1.74 -0.027,0.001 -0.054,0.001 -0.081,0 -1.032,0.069 -1.925,-0.709 -2,-1.74 z m -3.8,-2.06 c 0.041,-1.154 1.01,-2.055 2.164,-2.014 0.586,0.021 1.136,0.288 1.516,0.734 h 3.69 c -0.8,-2.24 -3,-3.28 -5.34,-3.28 -3.32,0 -5.82,2 -5.82,5.42 -0.084,2.942 2.233,5.396 5.176,5.48 0.101,0.003 0.203,0.003 0.304,0 4.12,0 5.9,-2.3 5.9,-6.34 z"
             style="fill:#009ee0;fill-opacity:1;fill-rule:nonzero;stroke:none"
             id="path94" />
        </g>
        <path
           d="m 218.44,42.86 h 4.4 V 28.58 h -4.4 z"
           style="fill:#009ee0;fill-opacity:1;fill-rule:nonzero;stroke:none"
           id="path96" />
        <g
           id="g98"
           transform="translate(224.56,38.96)">
          <path
             d="m 0,0 h 3.82 v -1.38 c 0.756,1.119 2.054,1.745 3.4,1.64 1.164,0.031 2.246,-0.596 2.8,-1.62 0.82,1.117 2.159,1.729 3.54,1.62 1.804,0.16 3.397,-1.173 3.557,-2.977 0.016,-0.181 0.017,-0.362 0.003,-0.543 v -7.12 h -4 v 5.62 c 0,1 -0.1,1.86 -1.3,1.86 -1,0 -1.34,-0.78 -1.34,-1.86 v -5.62 h -4 v 5.62 c 0,1 -0.1,1.86 -1.3,1.86 -1,0 -1.34,-0.78 -1.34,-1.86 v -5.62 h -4 z"
             style="fill:#009ee0;fill-opacity:1;fill-rule:nonzero;stroke:none"
             id="path100" />
        </g>
        <g
           id="g102"
           transform="translate(249.38,42.86)">
          <path
             d="m 0,0 h 4.4 v -10.62 h 6.32 v -3.66 H 0 Z"
             style="fill:#009ee0;fill-opacity:1;fill-rule:nonzero;stroke:none"
             id="path104" />
        </g>
        <g
           id="g106"
           transform="translate(268.36,34.94)">
          <path
             d="m 0,0 c 0.022,0.939 -0.72,1.718 -1.659,1.74 -0.027,0.001 -0.054,0.001 -0.081,0 -1.032,0.069 -1.925,-0.709 -2,-1.74 z m -3.8,-2.06 c 0.041,-1.154 1.01,-2.055 2.164,-2.014 0.586,0.021 1.136,0.288 1.516,0.734 h 3.7 c -0.8,-2.24 -3,-3.28 -5.34,-3.28 -3.32,0 -5.82,2 -5.82,5.42 -0.084,2.942 2.233,5.396 5.176,5.48 0.101,0.003 0.203,0.003 0.304,0 4.12,0 5.9,-2.3 5.9,-6.34 z"
             style="fill:#009ee0;fill-opacity:1;fill-rule:nonzero;stroke:none"
             id="path108" />
        </g>
        <g
           id="g110"
           transform="translate(280.36,34.94)">
          <path
             d="m 0,0 c 0.022,0.939 -0.72,1.718 -1.659,1.74 -0.027,0.001 -0.054,0.001 -0.081,0 -1.032,0.069 -1.925,-0.709 -2,-1.74 z m -3.8,-2.06 c 0.041,-1.154 1.01,-2.055 2.164,-2.014 0.586,0.021 1.136,0.288 1.516,0.734 h 3.7 c -0.8,-2.24 -3,-3.28 -5.34,-3.28 -3.32,0 -5.82,2 -5.82,5.42 -0.084,2.942 2.233,5.396 5.176,5.48 0.101,0.003 0.203,0.003 0.304,0 4.12,0 5.9,-2.3 5.9,-6.34 z"
             style="fill:#009ee0;fill-opacity:1;fill-rule:nonzero;stroke:none"
             id="path112" />
        </g>
      </g>
    </g>
  </g>
</svg>
